<svg xmlns="http://www.w3.org/2000/svg" width="800" height="300" style="background:#0d1117;border-radius:8px;">
<text x="400.0" y="22" text-anchor="middle" fill="#e0e0e0" font-size="14" font-weight="bold">Analog MNIST Autoresearch — Score Progression</text>
<line x1="60" y1="250.0" x2="770" y2="250.0" stroke="#1a2030" stroke-width="1"/>
<text x="52" y="254.0" text-anchor="end" fill="#666" font-size="11" font-family="monospace">0.00</text>
<line x1="60" y1="197.5" x2="770" y2="197.5" stroke="#1a2030" stroke-width="1"/>
<text x="52" y="201.5" text-anchor="end" fill="#666" font-size="11" font-family="monospace">0.25</text>
<line x1="60" y1="145.0" x2="770" y2="145.0" stroke="#1a2030" stroke-width="1"/>
<text x="52" y="149.0" text-anchor="end" fill="#666" font-size="11" font-family="monospace">0.50</text>
<line x1="60" y1="92.5" x2="770" y2="92.5" stroke="#1a2030" stroke-width="1"/>
<text x="52" y="96.5" text-anchor="end" fill="#666" font-size="11" font-family="monospace">0.75</text>
<line x1="60" y1="40.0" x2="770" y2="40.0" stroke="#1a2030" stroke-width="1"/>
<text x="52" y="44.0" text-anchor="end" fill="#666" font-size="11" font-family="monospace">1.00</text>
<text x="60.0" y="270" text-anchor="middle" fill="#666" font-size="10">#1</text>
<text x="202.0" y="270" text-anchor="middle" fill="#666" font-size="10">#2</text>
<text x="344.0" y="270" text-anchor="middle" fill="#666" font-size="10">#3</text>
<text x="486.0" y="270" text-anchor="middle" fill="#666" font-size="10">#4</text>
<text x="628.0" y="270" text-anchor="middle" fill="#666" font-size="10">#5</text>
<text x="770.0" y="270" text-anchor="middle" fill="#666" font-size="10">#6</text>
<text x="400.0" y="292" text-anchor="middle" fill="#888" font-size="11">Experiment</text>
<text x="14" y="150.0" text-anchor="middle" fill="#888" font-size="11" transform="rotate(-90,14,150.0)">Score</text>
<polyline points="60.0,68.53900000000002 202.0,218.5 344.0,146.869 486.0,132.127 628.0,134.836 770.0,63.583" fill="none" stroke="#00ff88" stroke-width="2"/>
<circle cx="60.0" cy="68.53900000000002" r="5" fill="#ffcc00"/>
<text x="60.0" y="58.539000000000016" text-anchor="middle" fill="#ffcc00" font-size="10" font-weight="bold">0.864</text>
<circle cx="202.0" cy="218.5" r="3" fill="#00ff88"/>
<circle cx="344.0" cy="146.869" r="3" fill="#00ff88"/>
<circle cx="486.0" cy="132.127" r="3" fill="#00ff88"/>
<circle cx="628.0" cy="134.836" r="3" fill="#00ff88"/>
<circle cx="770.0" cy="63.583" r="5" fill="#ffcc00"/>
<text x="770.0" y="53.583" text-anchor="middle" fill="#ffcc00" font-size="10" font-weight="bold">0.888</text>
<polyline points="60.0,69.4 202.0,216.4 344.0,149.2 486.0,132.39999999999998 628.0,136.6 770.0,69.4" fill="none" stroke="#4488ff" stroke-width="2" stroke-dasharray="5,3"/>
<circle cx="60.0" cy="69.4" r="5" fill="#ffcc00"/>
<text x="60.0" y="59.400000000000006" text-anchor="middle" fill="#ffcc00" font-size="10" font-weight="bold">0.860</text>
<circle cx="202.0" cy="216.4" r="3" fill="#4488ff"/>
<circle cx="344.0" cy="149.2" r="3" fill="#4488ff"/>
<circle cx="486.0" cy="132.39999999999998" r="3" fill="#4488ff"/>
<circle cx="628.0" cy="136.6" r="3" fill="#4488ff"/>
<circle cx="770.0" cy="69.4" r="5" fill="#ffcc00"/>
<text x="770.0" y="59.400000000000006" text-anchor="middle" fill="#ffcc00" font-size="10" font-weight="bold">0.860</text>
<polyline points="60.0,69.4 202.0,212.2 344.0,149.2 486.0,136.6 628.0,136.6 770.0,56.79999999999998" fill="none" stroke="#ff8844" stroke-width="2" stroke-dasharray="3,3"/>
<circle cx="60.0" cy="69.4" r="5" fill="#ffcc00"/>
<text x="60.0" y="59.400000000000006" text-anchor="middle" fill="#ffcc00" font-size="10" font-weight="bold">0.860</text>
<circle cx="202.0" cy="212.2" r="3" fill="#ff8844"/>
<circle cx="344.0" cy="149.2" r="3" fill="#ff8844"/>
<circle cx="486.0" cy="136.6" r="3" fill="#ff8844"/>
<circle cx="628.0" cy="136.6" r="3" fill="#ff8844"/>
<circle cx="770.0" cy="56.79999999999998" r="5" fill="#ffcc00"/>
<text x="770.0" y="46.79999999999998" text-anchor="middle" fill="#ffcc00" font-size="10" font-weight="bold">0.920</text>
<rect x="70" y="50" width="160" height="60" rx="4" fill="#0d1117" stroke="#333"/>
<line x1="78" y1="65" x2="98" y2="65" stroke="#00ff88" stroke-width="2"/>
<text x="104" y="69" fill="#ccc" font-size="10">Total Score</text>
<line x1="78" y1="83" x2="98" y2="83" stroke="#4488ff" stroke-width="2" stroke-dasharray="5,3"/>
<text x="104" y="87" fill="#ccc" font-size="10">Analog Accuracy</text>
<line x1="78" y1="101" x2="98" y2="101" stroke="#ff8844" stroke-width="2" stroke-dasharray="3,3"/>
<text x="104" y="105" fill="#ccc" font-size="10">Match Rate</text>
<line x1="60" y1="82.0" x2="770" y2="82.0" stroke="#ff4444" stroke-width="1" stroke-dasharray="8,4"/>
<text x="775" y="86.0" fill="#ff4444" font-size="10">target</text>
</svg>