<svg xmlns="http://www.w3.org/2000/svg" width="800" height="300" style="background:#0d1117;border-radius:8px;">
<text x="400.0" y="22" text-anchor="middle" fill="#e0e0e0" font-size="14" font-weight="bold">Analog MNIST Autoresearch — Score Progression</text>
<line x1="60" y1="250.0" x2="770" y2="250.0" stroke="#1a2030" stroke-width="1"/>
<text x="52" y="254.0" text-anchor="end" fill="#666" font-size="11" font-family="monospace">0.00</text>
<line x1="60" y1="197.5" x2="770" y2="197.5" stroke="#1a2030" stroke-width="1"/>
<text x="52" y="201.5" text-anchor="end" fill="#666" font-size="11" font-family="monospace">0.25</text>
<line x1="60" y1="145.0" x2="770" y2="145.0" stroke="#1a2030" stroke-width="1"/>
<text x="52" y="149.0" text-anchor="end" fill="#666" font-size="11" font-family="monospace">0.50</text>
<line x1="60" y1="92.5" x2="770" y2="92.5" stroke="#1a2030" stroke-width="1"/>
<text x="52" y="96.5" text-anchor="end" fill="#666" font-size="11" font-family="monospace">0.75</text>
<line x1="60" y1="40.0" x2="770" y2="40.0" stroke="#1a2030" stroke-width="1"/>
<text x="52" y="44.0" text-anchor="end" fill="#666" font-size="11" font-family="monospace">1.00</text>
<text x="60.0" y="270" text-anchor="middle" fill="#666" font-size="10">#1</text>
<text x="134.73684210526315" y="270" text-anchor="middle" fill="#666" font-size="10">#3</text>
<text x="209.4736842105263" y="270" text-anchor="middle" fill="#666" font-size="10">#5</text>
<text x="284.2105263157895" y="270" text-anchor="middle" fill="#666" font-size="10">#7</text>
<text x="358.9473684210526" y="270" text-anchor="middle" fill="#666" font-size="10">#9</text>
<text x="433.6842105263158" y="270" text-anchor="middle" fill="#666" font-size="10">#11</text>
<text x="508.4210526315789" y="270" text-anchor="middle" fill="#666" font-size="10">#13</text>
<text x="583.1578947368421" y="270" text-anchor="middle" fill="#666" font-size="10">#15</text>
<text x="657.8947368421052" y="270" text-anchor="middle" fill="#666" font-size="10">#17</text>
<text x="732.6315789473684" y="270" text-anchor="middle" fill="#666" font-size="10">#19</text>
<text x="400.0" y="292" text-anchor="middle" fill="#888" font-size="11">Experiment</text>
<text x="14" y="150.0" text-anchor="middle" fill="#888" font-size="11" transform="rotate(-90,14,150.0)">Score</text>
<polyline points="60.0,68.53900000000002 97.36842105263158,218.5 134.73684210526315,146.869 172.10526315789474,132.127 209.4736842105263,134.836 246.8421052631579,63.583 284.2105263157895,147.751 321.57894736842104,147.625 358.9473684210526,151.531 396.3157894736842,59.23599999999999 433.6842105263158,58.43799999999999 471.0526315789474,61.41999999999999 508.4210526315789,67.50999999999999 545.7894736842105,143.257 583.1578947368421,52.87299999999999 620.5263157894736,55.393 657.8947368421052,63.16299999999998 695.2631578947369,55.414000000000016 732.6315789473684,59.215 770.0,51.613" fill="none" stroke="#00ff88" stroke-width="2"/>
<circle cx="60.0" cy="68.53900000000002" r="5" fill="#ffcc00"/>
<text x="60.0" y="58.539000000000016" text-anchor="middle" fill="#ffcc00" font-size="10" font-weight="bold">0.864</text>
<circle cx="97.36842105263158" cy="218.5" r="3" fill="#00ff88"/>
<circle cx="134.73684210526315" cy="146.869" r="3" fill="#00ff88"/>
<circle cx="172.10526315789474" cy="132.127" r="3" fill="#00ff88"/>
<circle cx="209.4736842105263" cy="134.836" r="3" fill="#00ff88"/>
<circle cx="246.8421052631579" cy="63.583" r="5" fill="#ffcc00"/>
<text x="246.8421052631579" y="53.583" text-anchor="middle" fill="#ffcc00" font-size="10" font-weight="bold">0.888</text>
<circle cx="284.2105263157895" cy="147.751" r="3" fill="#00ff88"/>
<circle cx="321.57894736842104" cy="147.625" r="3" fill="#00ff88"/>
<circle cx="358.9473684210526" cy="151.531" r="3" fill="#00ff88"/>
<circle cx="396.3157894736842" cy="59.23599999999999" r="5" fill="#ffcc00"/>
<text x="396.3157894736842" y="49.23599999999999" text-anchor="middle" fill="#ffcc00" font-size="10" font-weight="bold">0.908</text>
<circle cx="433.6842105263158" cy="58.43799999999999" r="5" fill="#ffcc00"/>
<text x="433.6842105263158" y="48.43799999999999" text-anchor="middle" fill="#ffcc00" font-size="10" font-weight="bold">0.912</text>
<circle cx="471.0526315789474" cy="61.41999999999999" r="3" fill="#00ff88"/>
<circle cx="508.4210526315789" cy="67.50999999999999" r="3" fill="#00ff88"/>
<circle cx="545.7894736842105" cy="143.257" r="3" fill="#00ff88"/>
<circle cx="583.1578947368421" cy="52.87299999999999" r="5" fill="#ffcc00"/>
<text x="583.1578947368421" y="42.87299999999999" text-anchor="middle" fill="#ffcc00" font-size="10" font-weight="bold">0.939</text>
<circle cx="620.5263157894736" cy="55.393" r="3" fill="#00ff88"/>
<circle cx="657.8947368421052" cy="63.16299999999998" r="3" fill="#00ff88"/>
<circle cx="695.2631578947369" cy="55.414000000000016" r="3" fill="#00ff88"/>
<circle cx="732.6315789473684" cy="59.215" r="3" fill="#00ff88"/>
<circle cx="770.0" cy="51.613" r="5" fill="#ffcc00"/>
<text x="770.0" y="41.613" text-anchor="middle" fill="#ffcc00" font-size="10" font-weight="bold">0.945</text>
<polyline points="60.0,69.4 97.36842105263158,216.4 134.73684210526315,149.2 172.10526315789474,132.39999999999998 209.4736842105263,136.6 246.8421052631579,69.4 284.2105263157895,149.2 321.57894736842104,149.2 358.9473684210526,153.39999999999998 396.3157894736842,65.19999999999999 433.6842105263158,61.0 471.0526315789474,61.0 508.4210526315789,73.6 545.7894736842105,145.0 583.1578947368421,56.79999999999998 620.5263157894736,61.0 657.8947368421052,69.4 695.2631578947369,61.0 732.6315789473684,65.19999999999999 770.0,56.79999999999998" fill="none" stroke="#4488ff" stroke-width="2" stroke-dasharray="5,3"/>
<circle cx="60.0" cy="69.4" r="5" fill="#ffcc00"/>
<text x="60.0" y="59.400000000000006" text-anchor="middle" fill="#ffcc00" font-size="10" font-weight="bold">0.860</text>
<circle cx="97.36842105263158" cy="216.4" r="3" fill="#4488ff"/>
<circle cx="134.73684210526315" cy="149.2" r="3" fill="#4488ff"/>
<circle cx="172.10526315789474" cy="132.39999999999998" r="3" fill="#4488ff"/>
<circle cx="209.4736842105263" cy="136.6" r="3" fill="#4488ff"/>
<circle cx="246.8421052631579" cy="69.4" r="5" fill="#ffcc00"/>
<text x="246.8421052631579" y="59.400000000000006" text-anchor="middle" fill="#ffcc00" font-size="10" font-weight="bold">0.860</text>
<circle cx="284.2105263157895" cy="149.2" r="3" fill="#4488ff"/>
<circle cx="321.57894736842104" cy="149.2" r="3" fill="#4488ff"/>
<circle cx="358.9473684210526" cy="153.39999999999998" r="3" fill="#4488ff"/>
<circle cx="396.3157894736842" cy="65.19999999999999" r="5" fill="#ffcc00"/>
<text x="396.3157894736842" y="55.19999999999999" text-anchor="middle" fill="#ffcc00" font-size="10" font-weight="bold">0.880</text>
<circle cx="433.6842105263158" cy="61.0" r="5" fill="#ffcc00"/>
<text x="433.6842105263158" y="51.0" text-anchor="middle" fill="#ffcc00" font-size="10" font-weight="bold">0.900</text>
<circle cx="471.0526315789474" cy="61.0" r="3" fill="#4488ff"/>
<circle cx="508.4210526315789" cy="73.6" r="3" fill="#4488ff"/>
<circle cx="545.7894736842105" cy="145.0" r="3" fill="#4488ff"/>
<circle cx="583.1578947368421" cy="56.79999999999998" r="5" fill="#ffcc00"/>
<text x="583.1578947368421" y="46.79999999999998" text-anchor="middle" fill="#ffcc00" font-size="10" font-weight="bold">0.920</text>
<circle cx="620.5263157894736" cy="61.0" r="3" fill="#4488ff"/>
<circle cx="657.8947368421052" cy="69.4" r="3" fill="#4488ff"/>
<circle cx="695.2631578947369" cy="61.0" r="3" fill="#4488ff"/>
<circle cx="732.6315789473684" cy="65.19999999999999" r="3" fill="#4488ff"/>
<circle cx="770.0" cy="56.79999999999998" r="5" fill="#ffcc00"/>
<text x="770.0" y="46.79999999999998" text-anchor="middle" fill="#ffcc00" font-size="10" font-weight="bold">0.920</text>
<polyline points="60.0,69.4 97.36842105263158,212.2 134.73684210526315,149.2 172.10526315789474,136.6 209.4736842105263,136.6 246.8421052631579,56.79999999999998 284.2105263157895,140.8 321.57894736842104,140.8 358.9473684210526,145.0 396.3157894736842,52.60000000000002 433.6842105263158,56.79999999999998 471.0526315789474,65.19999999999999 508.4210526315789,61.0 545.7894736842105,136.6 583.1578947368421,48.400000000000006 620.5263157894736,48.400000000000006 657.8947368421052,56.79999999999998 695.2631578947369,48.400000000000006 732.6315789473684,52.60000000000002 770.0,44.20000000000002" fill="none" stroke="#ff8844" stroke-width="2" stroke-dasharray="3,3"/>
<circle cx="60.0" cy="69.4" r="5" fill="#ffcc00"/>
<text x="60.0" y="59.400000000000006" text-anchor="middle" fill="#ffcc00" font-size="10" font-weight="bold">0.860</text>
<circle cx="97.36842105263158" cy="212.2" r="3" fill="#ff8844"/>
<circle cx="134.73684210526315" cy="149.2" r="3" fill="#ff8844"/>
<circle cx="172.10526315789474" cy="136.6" r="3" fill="#ff8844"/>
<circle cx="209.4736842105263" cy="136.6" r="3" fill="#ff8844"/>
<circle cx="246.8421052631579" cy="56.79999999999998" r="5" fill="#ffcc00"/>
<text x="246.8421052631579" y="46.79999999999998" text-anchor="middle" fill="#ffcc00" font-size="10" font-weight="bold">0.920</text>
<circle cx="284.2105263157895" cy="140.8" r="3" fill="#ff8844"/>
<circle cx="321.57894736842104" cy="140.8" r="3" fill="#ff8844"/>
<circle cx="358.9473684210526" cy="145.0" r="3" fill="#ff8844"/>
<circle cx="396.3157894736842" cy="52.60000000000002" r="5" fill="#ffcc00"/>
<text x="396.3157894736842" y="42.60000000000002" text-anchor="middle" fill="#ffcc00" font-size="10" font-weight="bold">0.940</text>
<circle cx="433.6842105263158" cy="56.79999999999998" r="5" fill="#ffcc00"/>
<text x="433.6842105263158" y="46.79999999999998" text-anchor="middle" fill="#ffcc00" font-size="10" font-weight="bold">0.920</text>
<circle cx="471.0526315789474" cy="65.19999999999999" r="3" fill="#ff8844"/>
<circle cx="508.4210526315789" cy="61.0" r="3" fill="#ff8844"/>
<circle cx="545.7894736842105" cy="136.6" r="3" fill="#ff8844"/>
<circle cx="583.1578947368421" cy="48.400000000000006" r="5" fill="#ffcc00"/>
<text x="583.1578947368421" y="38.400000000000006" text-anchor="middle" fill="#ffcc00" font-size="10" font-weight="bold">0.960</text>
<circle cx="620.5263157894736" cy="48.400000000000006" r="3" fill="#ff8844"/>
<circle cx="657.8947368421052" cy="56.79999999999998" r="3" fill="#ff8844"/>
<circle cx="695.2631578947369" cy="48.400000000000006" r="3" fill="#ff8844"/>
<circle cx="732.6315789473684" cy="52.60000000000002" r="3" fill="#ff8844"/>
<circle cx="770.0" cy="44.20000000000002" r="5" fill="#ffcc00"/>
<text x="770.0" y="34.20000000000002" text-anchor="middle" fill="#ffcc00" font-size="10" font-weight="bold">0.980</text>
<rect x="70" y="50" width="160" height="60" rx="4" fill="#0d1117" stroke="#333"/>
<line x1="78" y1="65" x2="98" y2="65" stroke="#00ff88" stroke-width="2"/>
<text x="104" y="69" fill="#ccc" font-size="10">Total Score</text>
<line x1="78" y1="83" x2="98" y2="83" stroke="#4488ff" stroke-width="2" stroke-dasharray="5,3"/>
<text x="104" y="87" fill="#ccc" font-size="10">Analog Accuracy</text>
<line x1="78" y1="101" x2="98" y2="101" stroke="#ff8844" stroke-width="2" stroke-dasharray="3,3"/>
<text x="104" y="105" fill="#ccc" font-size="10">Match Rate</text>
<line x1="60" y1="82.0" x2="770" y2="82.0" stroke="#ff4444" stroke-width="1" stroke-dasharray="8,4"/>
<text x="775" y="86.0" fill="#ff4444" font-size="10">target</text>
</svg>