<svg xmlns="http://www.w3.org/2000/svg" width="800" height="300" style="background:#0d1117;border-radius:8px;">
<text x="400.0" y="22" text-anchor="middle" fill="#e0e0e0" font-size="14" font-weight="bold">Analog MNIST Autoresearch — Score Progression</text>
<line x1="60" y1="250.0" x2="770" y2="250.0" stroke="#1a2030" stroke-width="1"/>
<text x="52" y="254.0" text-anchor="end" fill="#666" font-size="11" font-family="monospace">0.00</text>
<line x1="60" y1="197.5" x2="770" y2="197.5" stroke="#1a2030" stroke-width="1"/>
<text x="52" y="201.5" text-anchor="end" fill="#666" font-size="11" font-family="monospace">0.25</text>
<line x1="60" y1="145.0" x2="770" y2="145.0" stroke="#1a2030" stroke-width="1"/>
<text x="52" y="149.0" text-anchor="end" fill="#666" font-size="11" font-family="monospace">0.50</text>
<line x1="60" y1="92.5" x2="770" y2="92.5" stroke="#1a2030" stroke-width="1"/>
<text x="52" y="96.5" text-anchor="end" fill="#666" font-size="11" font-family="monospace">0.75</text>
<line x1="60" y1="40.0" x2="770" y2="40.0" stroke="#1a2030" stroke-width="1"/>
<text x="52" y="44.0" text-anchor="end" fill="#666" font-size="11" font-family="monospace">1.00</text>
<text x="60.0" y="270" text-anchor="middle" fill="#666" font-size="10">#1</text>
<text x="110.71428571428571" y="270" text-anchor="middle" fill="#666" font-size="10">#2</text>
<text x="161.42857142857142" y="270" text-anchor="middle" fill="#666" font-size="10">#3</text>
<text x="212.14285714285714" y="270" text-anchor="middle" fill="#666" font-size="10">#4</text>
<text x="262.85714285714283" y="270" text-anchor="middle" fill="#666" font-size="10">#5</text>
<text x="313.57142857142856" y="270" text-anchor="middle" fill="#666" font-size="10">#6</text>
<text x="364.2857142857143" y="270" text-anchor="middle" fill="#666" font-size="10">#7</text>
<text x="415.0" y="270" text-anchor="middle" fill="#666" font-size="10">#8</text>
<text x="465.71428571428567" y="270" text-anchor="middle" fill="#666" font-size="10">#9</text>
<text x="516.4285714285714" y="270" text-anchor="middle" fill="#666" font-size="10">#10</text>
<text x="567.1428571428571" y="270" text-anchor="middle" fill="#666" font-size="10">#11</text>
<text x="617.8571428571429" y="270" text-anchor="middle" fill="#666" font-size="10">#12</text>
<text x="668.5714285714286" y="270" text-anchor="middle" fill="#666" font-size="10">#13</text>
<text x="719.2857142857143" y="270" text-anchor="middle" fill="#666" font-size="10">#14</text>
<text x="770.0" y="270" text-anchor="middle" fill="#666" font-size="10">#15</text>
<text x="400.0" y="292" text-anchor="middle" fill="#888" font-size="11">Experiment</text>
<text x="14" y="150.0" text-anchor="middle" fill="#888" font-size="11" transform="rotate(-90,14,150.0)">Score</text>
<polyline points="60.0,68.53900000000002 110.71428571428571,218.5 161.42857142857142,146.869 212.14285714285714,132.127 262.85714285714283,134.836 313.57142857142856,63.583 364.2857142857143,147.751 415.0,147.625 465.71428571428567,151.531 516.4285714285714,59.23599999999999 567.1428571428571,58.43799999999999 617.8571428571429,61.41999999999999 668.5714285714286,67.50999999999999 719.2857142857143,143.257 770.0,52.87299999999999" fill="none" stroke="#00ff88" stroke-width="2"/>
<circle cx="60.0" cy="68.53900000000002" r="5" fill="#ffcc00"/>
<text x="60.0" y="58.539000000000016" text-anchor="middle" fill="#ffcc00" font-size="10" font-weight="bold">0.864</text>
<circle cx="110.71428571428571" cy="218.5" r="3" fill="#00ff88"/>
<circle cx="161.42857142857142" cy="146.869" r="3" fill="#00ff88"/>
<circle cx="212.14285714285714" cy="132.127" r="3" fill="#00ff88"/>
<circle cx="262.85714285714283" cy="134.836" r="3" fill="#00ff88"/>
<circle cx="313.57142857142856" cy="63.583" r="5" fill="#ffcc00"/>
<text x="313.57142857142856" y="53.583" text-anchor="middle" fill="#ffcc00" font-size="10" font-weight="bold">0.888</text>
<circle cx="364.2857142857143" cy="147.751" r="3" fill="#00ff88"/>
<circle cx="415.0" cy="147.625" r="3" fill="#00ff88"/>
<circle cx="465.71428571428567" cy="151.531" r="3" fill="#00ff88"/>
<circle cx="516.4285714285714" cy="59.23599999999999" r="5" fill="#ffcc00"/>
<text x="516.4285714285714" y="49.23599999999999" text-anchor="middle" fill="#ffcc00" font-size="10" font-weight="bold">0.908</text>
<circle cx="567.1428571428571" cy="58.43799999999999" r="5" fill="#ffcc00"/>
<text x="567.1428571428571" y="48.43799999999999" text-anchor="middle" fill="#ffcc00" font-size="10" font-weight="bold">0.912</text>
<circle cx="617.8571428571429" cy="61.41999999999999" r="3" fill="#00ff88"/>
<circle cx="668.5714285714286" cy="67.50999999999999" r="3" fill="#00ff88"/>
<circle cx="719.2857142857143" cy="143.257" r="3" fill="#00ff88"/>
<circle cx="770.0" cy="52.87299999999999" r="5" fill="#ffcc00"/>
<text x="770.0" y="42.87299999999999" text-anchor="middle" fill="#ffcc00" font-size="10" font-weight="bold">0.939</text>
<polyline points="60.0,69.4 110.71428571428571,216.4 161.42857142857142,149.2 212.14285714285714,132.39999999999998 262.85714285714283,136.6 313.57142857142856,69.4 364.2857142857143,149.2 415.0,149.2 465.71428571428567,153.39999999999998 516.4285714285714,65.19999999999999 567.1428571428571,61.0 617.8571428571429,61.0 668.5714285714286,73.6 719.2857142857143,145.0 770.0,56.79999999999998" fill="none" stroke="#4488ff" stroke-width="2" stroke-dasharray="5,3"/>
<circle cx="60.0" cy="69.4" r="5" fill="#ffcc00"/>
<text x="60.0" y="59.400000000000006" text-anchor="middle" fill="#ffcc00" font-size="10" font-weight="bold">0.860</text>
<circle cx="110.71428571428571" cy="216.4" r="3" fill="#4488ff"/>
<circle cx="161.42857142857142" cy="149.2" r="3" fill="#4488ff"/>
<circle cx="212.14285714285714" cy="132.39999999999998" r="3" fill="#4488ff"/>
<circle cx="262.85714285714283" cy="136.6" r="3" fill="#4488ff"/>
<circle cx="313.57142857142856" cy="69.4" r="5" fill="#ffcc00"/>
<text x="313.57142857142856" y="59.400000000000006" text-anchor="middle" fill="#ffcc00" font-size="10" font-weight="bold">0.860</text>
<circle cx="364.2857142857143" cy="149.2" r="3" fill="#4488ff"/>
<circle cx="415.0" cy="149.2" r="3" fill="#4488ff"/>
<circle cx="465.71428571428567" cy="153.39999999999998" r="3" fill="#4488ff"/>
<circle cx="516.4285714285714" cy="65.19999999999999" r="5" fill="#ffcc00"/>
<text x="516.4285714285714" y="55.19999999999999" text-anchor="middle" fill="#ffcc00" font-size="10" font-weight="bold">0.880</text>
<circle cx="567.1428571428571" cy="61.0" r="5" fill="#ffcc00"/>
<text x="567.1428571428571" y="51.0" text-anchor="middle" fill="#ffcc00" font-size="10" font-weight="bold">0.900</text>
<circle cx="617.8571428571429" cy="61.0" r="3" fill="#4488ff"/>
<circle cx="668.5714285714286" cy="73.6" r="3" fill="#4488ff"/>
<circle cx="719.2857142857143" cy="145.0" r="3" fill="#4488ff"/>
<circle cx="770.0" cy="56.79999999999998" r="5" fill="#ffcc00"/>
<text x="770.0" y="46.79999999999998" text-anchor="middle" fill="#ffcc00" font-size="10" font-weight="bold">0.920</text>
<polyline points="60.0,69.4 110.71428571428571,212.2 161.42857142857142,149.2 212.14285714285714,136.6 262.85714285714283,136.6 313.57142857142856,56.79999999999998 364.2857142857143,140.8 415.0,140.8 465.71428571428567,145.0 516.4285714285714,52.60000000000002 567.1428571428571,56.79999999999998 617.8571428571429,65.19999999999999 668.5714285714286,61.0 719.2857142857143,136.6 770.0,48.400000000000006" fill="none" stroke="#ff8844" stroke-width="2" stroke-dasharray="3,3"/>
<circle cx="60.0" cy="69.4" r="5" fill="#ffcc00"/>
<text x="60.0" y="59.400000000000006" text-anchor="middle" fill="#ffcc00" font-size="10" font-weight="bold">0.860</text>
<circle cx="110.71428571428571" cy="212.2" r="3" fill="#ff8844"/>
<circle cx="161.42857142857142" cy="149.2" r="3" fill="#ff8844"/>
<circle cx="212.14285714285714" cy="136.6" r="3" fill="#ff8844"/>
<circle cx="262.85714285714283" cy="136.6" r="3" fill="#ff8844"/>
<circle cx="313.57142857142856" cy="56.79999999999998" r="5" fill="#ffcc00"/>
<text x="313.57142857142856" y="46.79999999999998" text-anchor="middle" fill="#ffcc00" font-size="10" font-weight="bold">0.920</text>
<circle cx="364.2857142857143" cy="140.8" r="3" fill="#ff8844"/>
<circle cx="415.0" cy="140.8" r="3" fill="#ff8844"/>
<circle cx="465.71428571428567" cy="145.0" r="3" fill="#ff8844"/>
<circle cx="516.4285714285714" cy="52.60000000000002" r="5" fill="#ffcc00"/>
<text x="516.4285714285714" y="42.60000000000002" text-anchor="middle" fill="#ffcc00" font-size="10" font-weight="bold">0.940</text>
<circle cx="567.1428571428571" cy="56.79999999999998" r="5" fill="#ffcc00"/>
<text x="567.1428571428571" y="46.79999999999998" text-anchor="middle" fill="#ffcc00" font-size="10" font-weight="bold">0.920</text>
<circle cx="617.8571428571429" cy="65.19999999999999" r="3" fill="#ff8844"/>
<circle cx="668.5714285714286" cy="61.0" r="3" fill="#ff8844"/>
<circle cx="719.2857142857143" cy="136.6" r="3" fill="#ff8844"/>
<circle cx="770.0" cy="48.400000000000006" r="5" fill="#ffcc00"/>
<text x="770.0" y="38.400000000000006" text-anchor="middle" fill="#ffcc00" font-size="10" font-weight="bold">0.960</text>
<rect x="70" y="50" width="160" height="60" rx="4" fill="#0d1117" stroke="#333"/>
<line x1="78" y1="65" x2="98" y2="65" stroke="#00ff88" stroke-width="2"/>
<text x="104" y="69" fill="#ccc" font-size="10">Total Score</text>
<line x1="78" y1="83" x2="98" y2="83" stroke="#4488ff" stroke-width="2" stroke-dasharray="5,3"/>
<text x="104" y="87" fill="#ccc" font-size="10">Analog Accuracy</text>
<line x1="78" y1="101" x2="98" y2="101" stroke="#ff8844" stroke-width="2" stroke-dasharray="3,3"/>
<text x="104" y="105" fill="#ccc" font-size="10">Match Rate</text>
<line x1="60" y1="82.0" x2="770" y2="82.0" stroke="#ff4444" stroke-width="1" stroke-dasharray="8,4"/>
<text x="775" y="86.0" fill="#ff4444" font-size="10">target</text>
</svg>